<?xml version="1.0" encoding="utf-8"?><svg viewBox="0 0 40 40" xmlns="http://www.w3.org/2000/svg" xmlns:xlink="http://www.w3.org/1999/xlink"><style>:root>svg{display:none}:root>svg:target{display:block}</style><svg fill="none" viewBox="0 0 24 24" id="arrow" xmlns="http://www.w3.org/2000/svg"><path d="M19.365 12.56l-4.98 5a.79.79 0 01-.56.24c-.2 0-.4-.08-.56-.24a.797.797 0 010-1.14l3.62-3.64H5.205c-.44 0-.8-.36-.8-.8 0-.44.36-.8.8-.8h11.68l-3.62-3.64a.797.797 0 010-1.14c.32-.32.82-.32 1.14 0l4.98 5c.3.34.3.86-.02 1.16z" fill="#000"/></svg><svg viewBox="0 0 24 24" id="cart" xmlns="http://www.w3.org/2000/svg"><path fill-rule="evenodd" clip-rule="evenodd" d="M3.15 3.408a7.57 7.57 0 00-.496-.008H1a.9.9 0 110-1.8H2.681c.216 0 .425 0 .603.013.197.015.42.05.649.152a1.9 1.9 0 01.803.675c.14.208.212.422.26.613a8.487 8.487 0 01.121.619l.253 1.45 13.092.388c.513.015.95.028 1.309.067.377.042.744.12 1.092.305A2.9 2.9 0 0122.1 7.154c.175.355.242.723.272 1.102.029.36.029.797.029 1.31v.068c0 .482 0 .894-.026 1.235-.029.36-.09.71-.25 1.05a2.9 2.9 0 01-1.142 1.258c-.323.192-.666.287-1.021.35-.337.059-.747.099-1.227.145l-9.728.941c-.492.048-.912.089-1.262.095-.369.006-.73-.023-1.091-.155a2.9 2.9 0 01-1.36-1.036c-.223-.312-.347-.653-.438-1.01a17.24 17.24 0 01-.244-1.242L3.344 3.98a7.569 7.569 0 00-.093-.486.774.774 0 00-.018-.06.1.1 0 00-.021-.019.775.775 0 00-.063-.007zm2.534 3.524l.694 3.991c.092.53.153.875.22 1.136.065.251.118.353.16.412a1.1 1.1 0 00.515.392c.068.025.18.05.44.045.27-.005.618-.038 1.153-.09l9.661-.934c.522-.051.862-.085 1.122-.13.248-.044.352-.088.413-.124a1.1 1.1 0 00.433-.477c.03-.064.064-.172.084-.424.02-.262.021-.604.021-1.129 0-.556 0-.921-.023-1.2-.022-.269-.059-.381-.091-.447a1.1 1.1 0 00-.469-.482c-.064-.034-.175-.075-.443-.105-.279-.03-.643-.042-1.2-.058l-12.69-.376zM8.5 17.9a1.1 1.1 0 100 2.2 1.1 1.1 0 000-2.2zM5.6 19a2.9 2.9 0 115.8 0 2.9 2.9 0 01-5.8 0zM18 17.9a1.1 1.1 0 100 2.2 1.1 1.1 0 000-2.2zM15.1 19a2.9 2.9 0 115.8 0 2.9 2.9 0 01-5.8 0z" fill="currentColor"/></svg><svg color="currentColor" viewBox="0 0 14 9" id="chevron" xmlns="http://www.w3.org/2000/svg"><path fill-rule="evenodd" clip-rule="evenodd" d="M13.47.864a.9.9 0 010 1.272L7.636 7.97a.9.9 0 01-1.272 0L.53 2.136A.9.9 0 111.803.864L7 6.06 12.197.864a.9.9 0 011.273 0z" fill="currentColor"/></svg><svg fill="none" viewBox="0 0 40 40" id="customer-support" xmlns="http://www.w3.org/2000/svg"><g clip-path="url(#dclip0)"><path d="M36.462 15.975C36.2 7.122 28.916 0 20 0S3.8 7.122 3.537 15.975L2.353 17.16v8.033l1.176 1.177v5.473a5.81 5.81 0 005.804 5.804h1.458A3.535 3.535 0 0014.118 40h2.353a3.535 3.535 0 003.328-2.356l.201.003c5.681 0 10.435-4.048 11.528-9.412h3.077l3.042-3.042V17.16l-1.185-1.185zM20 2.353c6.983 0 12.797 5.096 13.92 11.765h-2.392C30.435 8.754 25.681 4.706 20 4.706S9.565 8.754 8.472 14.118H6.079C7.203 7.449 13.017 2.353 20 2.353zm9.114 11.765c-3.803-.012-6.49.22-8.704-3.018l-1.076-1.572-.924 1.666c-1.346 2.426-3.16 2.924-5.469 2.924h-2.055c1.048-4.055 4.737-7.06 9.114-7.06 4.378 0 8.067 3.005 9.114 7.06zM8.235 25.882H6.37L4.706 24.22v-6.085l1.664-1.663h1.865v9.411zm-2.353 5.961v-3.608H8.47a11.661 11.661 0 003.072 5.826c-.33.352-.587.77-.751 1.233H9.333a3.455 3.455 0 01-3.45-3.45zm10.589 5.804h-2.353a1.178 1.178 0 010-2.353h2.353a1.178 1.178 0 010 2.353zm12.94-11.765c0 5.19-4.221 9.412-9.411 9.412-.067 0-.136-.001-.203-.003a3.535 3.535 0 00-3.326-2.35c-2.416.005-2.378-.012-2.679.016a9.357 9.357 0 01-3.204-7.075v-9.411h2.353c2.082 0 4.618-.344 6.58-2.733 2.59 2.714 5.755 2.733 8.596 2.733h1.295v9.411zm5.883-1.663l-1.664 1.663h-1.865v-9.411h1.865l1.664 1.663v6.085z" fill="#3A3A3A"/></g><defs><clipPath id="dclip0"><path fill="#fff" d="M0 0h40v40H0z"/></clipPath></defs></svg><svg fill="none" viewBox="0 0 20 20" id="geo" xmlns="http://www.w3.org/2000/svg"><path fill-rule="evenodd" clip-rule="evenodd" d="M10.974 18.541c2.116-1.443 6.943-5.236 6.943-9.791a7.917 7.917 0 10-15.834 0c0 4.555 4.827 8.348 6.943 9.791a1.718 1.718 0 001.948 0zM10 11.25a2.5 2.5 0 100-5 2.5 2.5 0 000 5z" fill="#898989"/></svg><svg fill="none" viewBox="0 0 40 40" id="guarantee" xmlns="http://www.w3.org/2000/svg"><g clip-path="url(#fclip0)"><path d="M37.857 14.174c-.527-1.634-.303-4.088-1.674-5.982-1.383-1.91-3.788-2.452-5.146-3.445-1.343-.983-2.593-3.12-4.853-3.858-2.197-.717-4.443.255-6.184.255-1.741 0-3.987-.972-6.184-.256-2.26.738-3.51 2.877-4.853 3.859-1.357.992-3.763 1.536-5.145 3.445-1.371 1.893-1.148 4.352-1.675 5.982C1.64 15.726 0 17.588 0 20c0 2.413 1.64 4.269 2.143 5.826.527 1.634.302 4.088 1.674 5.982 1.383 1.91 3.788 2.452 5.146 3.445 1.343.983 2.593 3.121 4.853 3.859 2.195.716 4.445-.256 6.184-.256 1.737 0 3.992.97 6.184.256 2.26-.738 3.51-2.876 4.853-3.859 1.357-.992 3.763-1.536 5.145-3.445 1.371-1.892 1.148-4.351 1.675-5.982C38.36 24.274 40 22.412 40 20c0-2.413-1.639-4.268-2.143-5.826zm-2.973 10.691c-.615 1.905-.454 4.036-1.232 5.11-.789 1.09-2.86 1.586-4.46 2.756-1.58 1.156-2.689 2.99-3.978 3.41-1.22.398-3.206-.41-5.214-.41-2.022 0-3.989.81-5.214.41-1.289-.42-2.396-2.253-3.979-3.41-1.589-1.163-3.672-1.67-4.459-2.756-.775-1.07-.62-3.217-1.232-5.11-.6-1.854-1.991-3.46-1.991-4.865 0-1.406 1.39-3.006 1.991-4.865.615-1.904.454-4.036 1.232-5.11.788-1.088 2.862-1.587 4.46-2.756 1.586-1.16 2.687-2.988 3.978-3.41 1.218-.397 3.212.41 5.214.41 2.026 0 3.988-.81 5.214-.41 1.289.421 2.396 2.253 3.979 3.41 1.589 1.163 3.672 1.67 4.459 2.756.775 1.071.62 3.215 1.232 5.11.599 1.854 1.991 3.46 1.991 4.865 0 1.406-1.39 3.007-1.991 4.865zm-7.685-9.88c.61.61.61 1.6 0 2.21l-7.821 7.82c-.61.61-1.6.61-2.21 0l-4.367-4.366a1.562 1.562 0 112.21-2.21l3.262 3.262 6.716-6.716c.61-.61 1.6-.61 2.21 0z" fill="#3A3A3A"/></g><defs><clipPath id="fclip0"><path fill="#fff" d="M0 0h40v40H0z"/></clipPath></defs></svg><svg fill="none" viewBox="0 0 24 21" id="heart" xmlns="http://www.w3.org/2000/svg"><path d="M12 19.054C-8 8 6-4 12 3.588 18-4 32 8 12 19.054z" stroke="currentColor" stroke-width="1.8"/></svg><svg fill="none" viewBox="0 0 20 20" id="phone" xmlns="http://www.w3.org/2000/svg"><path d="M13.43 13.067l-.515.773c-.103.154-.239.286-.418.334-.588.155-2.147.225-4.521-2.15C5.6 9.65 5.67 8.09 5.825 7.503c.048-.18.18-.315.334-.418l.773-.516a1.253 1.253 0 00.348-1.737l-1.46-2.19a1.253 1.253 0 00-1.537-.457l-.659.282c-.5.215-.908.6-1.152 1.086-.203.407-.36.836-.382 1.29-.068 1.432.246 4.96 4.176 8.89 3.93 3.93 7.458 4.244 8.89 4.176.454-.021.883-.179 1.29-.382a2.302 2.302 0 001.086-1.152l.282-.66c.238-.554.046-1.2-.456-1.535l-2.191-1.46a1.253 1.253 0 00-1.737.347z" fill="#898989"/></svg><svg viewBox="0 0 16 16" id="search" xmlns="http://www.w3.org/2000/svg"><path fill-rule="evenodd" clip-rule="evenodd" d="M6.75 2.233a4.517 4.517 0 100 9.034 4.517 4.517 0 000-9.034zM.433 6.75a6.317 6.317 0 1111.375 3.785l3.495 3.495a.9.9 0 01-1.273 1.273l-3.495-3.495A6.317 6.317 0 01.434 6.75z" fill="currentColor"/></svg><svg fill="none" viewBox="0 0 24 24" id="send" xmlns="http://www.w3.org/2000/svg"><path d="M20.782 3.217a.75.75 0 00-.787-.172l-16.5 6a.75.75 0 000 1.402l6.442 2.573 4.756-4.77 1.057 1.057-4.777 4.778 2.58 6.442a.75.75 0 00.697.473.75.75 0 00.69-.495l6-16.5a.75.75 0 00-.158-.788z" fill="#fff"/></svg><svg fill="none" viewBox="0 0 24 24" id="share" xmlns="http://www.w3.org/2000/svg"><path d="M18 16c-.788 0-1.5.31-2.034.807L8.91 12.7c.05-.23.09-.46.09-.7 0-.24-.04-.47-.09-.7l7.05-4.11c.54.5 1.25.81 2.04.81 1.66 0 3-1.34 3-3s-1.34-3-3-3-3 1.34-3 3c0 .24.04.47.09.7L8.04 9.81C7.5 9.31 6.79 9 6 9c-1.66 0-3 1.34-3 3s1.34 3 3 3c.79 0 1.5-.31 2.04-.81l7.048 4.118A2.984 2.984 0 0015 19a3 3 0 103-3z" fill="#fff"/></svg><svg fill="none" viewBox="0 0 40 40" id="shipping" xmlns="http://www.w3.org/2000/svg"><g clip-path="url(#lclip0)"><path d="M36.899 20.735V2.52c0-.65-.527-1.177-1.177-1.177H4.197c-.65 0-1.177.527-1.177 1.177v19.667a3.562 3.562 0 00-1.613.667c-1.548 1.098-1.914 3.553-.618 5.068l5.3 6.425c3.281 3.84 6.766 4.31 11.947 4.31 4.446 0 6.434.02 10.308-.863l3.773-.903c.612.855 1.583 1.408 2.675 1.408h1.859c1.846 0 3.349-1.583 3.349-3.528V24.252c0-1.857-1.37-3.383-3.101-3.517zm-5.29 2.42l-1.567-.796a9.322 9.322 0 00-8.177-.132c-.714.28-2.272 1.224-3.08 1.192h-5.44a3.276 3.276 0 00-3.273 3.273v.858l-.03-.032-3.886-4.217a3.585 3.585 0 00-.783-.64V10.987h9.63v4.314c0 .65.527 1.176 1.176 1.176h7.425c.65 0 1.177-.527 1.177-1.176v-4.314h9.764v9.748c-1.374.106-2.52 1.09-2.935 2.42zM17.357 10.987h5.071v3.137h-5.071v-3.137zm17.19-2.353H24.78V3.696h9.764v4.938zM22.426 3.696v4.938h-5.071V3.696h5.071zm-7.424 0v4.938h-9.63V3.696h9.63zm12.795 31.809c-3.58.82-5.735.786-9.72.786-4.863 0-7.213-.078-10.173-3.442l-5.3-6.425c-.922-1.2.748-2.617 1.82-1.528l3.885 4.217c1.027 1.083 2.32 1.68 3.912 1.714h10.77a1.177 1.177 0 100-2.353H12.426v-1.782a.92.92 0 01.92-.92h5.44c1.225.088 2.994-.935 4.073-1.411a6.98 6.98 0 016.12.097l2.465 1.252v8.923l-3.645.872zm9.849-.734c0 .648-.447 1.175-.996 1.175h-1.859c-.549 0-.995-.527-.995-1.175V24.252c0-.648.446-1.175.995-1.175h1.859c.549 0 .996.527.996 1.175v10.519z" fill="#3A3A3A"/></g><defs><clipPath id="lclip0"><path fill="#fff" d="M0 0h40v40H0z"/></clipPath></defs></svg><svg fill="none" viewBox="0 0 40 40" id="trophy" xmlns="http://www.w3.org/2000/svg"><path d="M32.903 2.344c-.853 0-1.654.23-2.344.63V1.172C30.56.525 30.035 0 29.387 0h-18.75C9.99 0 9.465.525 9.465 1.172v1.817a4.657 4.657 0 00-2.368-.645A4.693 4.693 0 002.409 7.03a9.79 9.79 0 001.69 5.51c1.881 2.778 4.202 3.5 6.122 4.267a10.603 10.603 0 006.138 5.977l-.864 5.496h-.17a3.52 3.52 0 00-3.516 3.516v5.86h-1.172a1.172 1.172 0 000 2.343h18.75a1.172 1.172 0 000-2.344h-1.172v-5.86a3.52 3.52 0 00-3.515-3.515h-.17l-.864-5.496a10.604 10.604 0 006.143-5.988c1.814-.726 4.191-1.45 6.092-4.257a9.79 9.79 0 001.69-5.509 4.693 4.693 0 00-4.688-4.687zM9.457 13.979A7.447 7.447 0 014.753 7.03a2.346 2.346 0 012.344-2.343A2.346 2.346 0 019.44 7.03c0 .083.008.163.025.24v5.62c0 .376.02.748.059 1.115l-.068-.027zm16.415 23.677H14.153v-2.343h11.719v2.343zM24.7 30.625c.646 0 1.172.526 1.172 1.172v1.172H14.153v-1.172c0-.646.526-1.172 1.172-1.172H24.7zm-6.833-2.344l.776-4.932a10.603 10.603 0 002.74 0l.775 4.932h-4.29zm10.348-15.39c0 4.523-3.68 8.203-8.203 8.203s-8.203-3.68-8.203-8.203V7.03h16.407v5.86zm0-8.204H11.81V2.345h16.407v2.344zm2.328 9.292l-.041.016c.038-.363.057-.731.057-1.104V7.03a2.347 2.347 0 012.344-2.343 2.346 2.346 0 012.344 2.343 7.447 7.447 0 01-4.704 6.948z" fill="#3A3A3A"/></svg></svg>